<?xml version="1.0" standalone="no"?>
<!DOCTYPE svg PUBLIC "-//W3C//DTD SVG 20010904//EN"
 "http://www.w3.org/TR/2001/REC-SVG-20010904/DTD/svg10.dtd">
<svg version="1.0" xmlns="http://www.w3.org/2000/svg"
 width="600.000000pt" height="600.000000pt" viewBox="0 0 600.000000 600.000000"
 preserveAspectRatio="xMidYMid meet">

<g transform="translate(0.000000,600.000000) scale(0.100000,-0.100000)"
fill="#000000" stroke="none">
<path d="M2800 5774 c-19 -2 -78 -9 -130 -15 -1167 -131 -2138 -1017 -2388
-2180 -45 -206 -56 -324 -56 -579 0 -255 11 -373 56 -579 231 -1074 1065
-1908 2139 -2139 206 -45 324 -56 579 -56 255 0 373 11 579 56 1074 231 1908
1065 2139 2139 45 206 56 324 56 579 0 255 -11 373 -56 579 -197 916 -840
1673 -1708 2010 -323 126 -604 180 -960 186 -118 2 -231 1 -250 -1z m475 -230
c506 -70 975 -273 1372 -593 359 -290 662 -763 807 -1261 145 -495 145 -885 0
-1380 -145 -498 -448 -971 -807 -1261 -400 -323 -858 -520 -1382 -595 -761
-109 -1740 294 -2235 921 -310 392 -503 848 -576 1360 -65 456 61 1041 327
1516 241 431 537 727 968 968 304 171 678 292 1021 330 52 6 111 13 130 15 58
7 258 -4 375 -20z"/>
<path d="M2075 4575 c-282 -74 -652 -231 -1022 -435 -51 -28 -93 -47 -93 -42
0 26 75 114 146 171 127 103 111 124 -30 39 -179 -109 -351 -257 -398 -345
-33 -59 -60 -162 -88 -330 -33 -192 -17 -224 101 -210 100 12 315 119 779 387
322 187 546 290 627 290 114 0 112 -154 -7 -408 -143 -302 -493 -817 -975
-1432 -67 -85 -128 -166 -135 -179 -40 -77 47 -345 146 -448 32 -34 48 -43 75
-43 72 0 114 43 264 275 405 621 960 1331 1335 1705 265 265 427 380 477 339
26 -22 12 -120 -31 -219 -120 -279 -372 -654 -841 -1255 -251 -321 -285 -387
-285 -555 0 -109 18 -198 56 -271 49 -97 101 -121 162 -77 17 13 165 181 330
373 356 417 576 664 778 876 397 416 856 809 945 809 80 0 38 -64 -230 -351
-512 -549 -739 -948 -758 -1329 -9 -188 28 -301 132 -399 76 -72 129 -94 240
-99 78 -4 101 -1 170 23 44 14 114 44 155 66 180 96 484 319 744 547 l106 93
0 78 0 79 -257 -172 c-425 -283 -573 -344 -699 -287 -61 28 -78 79 -72 208 6
127 59 287 161 492 217 432 482 789 919 1238 212 217 258 276 258 328 0 53
-93 198 -174 273 -37 35 -52 42 -85 42 -22 0 -50 -4 -63 -9 -54 -20 -484 -357
-758 -593 -252 -217 -425 -381 -783 -741 l-348 -350 159 254 c478 766 665
1126 647 1243 -23 142 -130 255 -232 243 -104 -11 -420 -213 -663 -423 -187
-162 -511 -508 -799 -854 -57 -69 -112 -134 -123 -145 -10 -11 44 104 120 255
215 430 327 708 339 841 9 101 -44 248 -134 371 -68 94 -125 106 -288 63z"/>
</g>
</svg>
